<?xml version="1.0" encoding="UTF-8"?>
<svg id="Layer_1" xmlns="http://www.w3.org/2000/svg" version="1.1" viewBox="230 190 620 730">
  <defs>
    <style>
      .st0 {
        fill: #1e2366;
      }

      .st1 {
        fill: #292d93;
      }

      .st2 {
        fill: #d9dcfd;
      }

      .st3 {
        fill: #fff;
      }

      .st4 {
        fill: #959afd;
      }
    </style>
  </defs>
  <path class="st0" d="M492.65,242.12l-186.95,107.93c-29.3,16.92-47.35,48.18-47.35,82.01v215.87c0,33.83,18.05,65.1,47.35,82.01l186.95,107.93c29.3,16.92,65.4,16.92,94.7,0l186.95-107.93c29.3-16.92,47.35-48.18,47.35-82.01v-215.87c0-33.83-18.05-65.1-47.35-82.01l-186.95-107.93c-29.3-16.92-65.4-16.92-94.7,0Z"/>
  <path class="st3" d="M500.11,289.05l-157.49,90.93c-24.68,14.25-39.89,40.59-39.89,69.09v181.86c0,28.5,15.21,54.84,39.89,69.09l157.49,90.93c24.68,14.25,55.1,14.25,79.78,0l157.49-90.93c24.68-14.25,39.89-40.59,39.89-69.09v-181.86c0-28.5-15.21-54.84-39.89-69.09l-157.49-90.93c-24.68-14.25-55.1-14.25-79.78,0Z"/>
  <path class="st4" d="M721.59,435.16v112.82l-150.85,93.66c-18.14,10.51-40.51,10.55-58.69.1l-153.63-90.43v-116.16l146.84,84.45c21.94,12.61,48.94,12.57,70.83-.12l145.5-84.33Z"/>
  <path class="st2" d="M721.59,435.16l-145.5,84.33c-21.9,12.69-48.9,12.73-70.83.12l-146.84-84.45,148.8-85.91c20.29-11.72,45.28-11.72,65.58,0l148.8,85.91Z"/>
  <path class="st1" d="M721.59,547.99v96.86l-152.25,87.89c-18.16,10.49-40.53,10.49-58.68,0l-152.25-87.89v-93.52l153.63,90.43c18.18,10.45,40.55,10.41,58.69-.1l150.85-93.66Z"/>
</svg>
