<?xml version="1.0" encoding="UTF-8"?>
<svg id="Layer_1" xmlns="http://www.w3.org/2000/svg" version="1.1" viewBox="100 65 880 950">
  <defs>
    <style>
      .st0 {
        fill: #292d93;
      }

      .st1 {
        fill: #d9dcfd;
      }

      .st2 {
        fill: #dcdfee;
      }

      .st3 {
        fill: #fff;
      }

      .st4 {
        fill: #959afd;
      }
    </style>
  </defs>
  <path class="st2" d="M471.05,106.22l-272.24,157.18c-42.67,24.63-68.95,70.16-68.95,119.43v314.35c0,49.27,26.28,94.8,68.95,119.43l272.24,157.18c42.67,24.63,95.24,24.63,137.91,0l272.24-157.18c42.67-24.63,68.95-70.16,68.95-119.43v-314.35c0-49.27-26.28-94.8-68.95-119.43l-272.24-157.18c-42.67-24.63-95.24-24.63-137.91,0Z"/>
  <path class="st3" d="M481.91,174.56l-229.35,132.41c-35.95,20.75-58.09,59.11-58.09,100.61v264.83c0,41.51,22.14,79.86,58.09,100.61l229.35,132.41c35.95,20.75,80.23,20.75,116.18,0l229.35-132.41c35.95-20.75,58.09-59.11,58.09-100.61v-264.83c0-41.51-22.14-79.86-58.09-100.61l-229.35-132.41c-35.95-20.75-80.23-20.75-116.18,0Z"/>
  <path class="st4" d="M804.43,387.33v164.3l-219.68,136.39c-26.42,15.3-59,15.36-85.47.14l-223.73-131.68v-169.15l213.84,122.98c31.95,18.37,71.27,18.31,103.15-.17l211.88-122.81Z"/>
  <path class="st1" d="M804.43,387.33l-211.88,122.81c-31.89,18.48-71.21,18.54-103.15.17l-213.84-122.98,216.69-125.11c29.54-17.06,65.94-17.06,95.49,0l216.68,125.11Z"/>
  <path class="st0" d="M804.43,551.63v141.05l-221.71,127.99c-26.44,15.27-59.02,15.27-85.46,0l-221.71-127.99v-136.19l223.73,131.68c26.47,15.22,59.05,15.16,85.47-.14l219.68-136.39Z"/>
</svg>
