<?xml version="1.0" encoding="utf-8"?>
<!-- Generator: Adobe Illustrator 15.1.0, SVG Export Plug-In . SVG Version: 6.00 Build 0)  -->
<!DOCTYPE svg PUBLIC "-//W3C//DTD SVG 1.1//EN" "http://www.w3.org/Graphics/SVG/1.1/DTD/svg11.dtd">
<svg version="1.1" id="Layer_1" xmlns="http://www.w3.org/2000/svg" xmlns:xlink="http://www.w3.org/1999/xlink" x="0px" y="0px"
	 width="717.75px" height="791.46px" viewBox="0 0 717.75 791.46" enable-background="new 0 0 717.75 791.46" xml:space="preserve">
<path fill="#DDDFED" d="M298.666,16.439L60.458,153.968C23.124,175.523,0.124,215.36,0.124,258.471v275.059
	c0,43.11,23,82.946,60.335,104.502l238.207,137.529c37.335,21.556,83.334,21.556,120.668,0l238.209-137.529
	c37.334-21.556,60.334-61.392,60.334-104.502V258.471c0-43.11-23-82.948-60.334-104.502L419.334,16.439
	C382-5.116,336-5.116,298.666,16.439"/>
<path fill="#FFFFFF" d="M308.171,76.238L107.492,192.1c-31.453,18.16-50.829,51.72-50.829,88.039v231.723
	c0,36.319,19.375,69.88,50.829,88.039l200.68,115.861c31.453,18.161,70.204,18.161,101.658,0L610.508,599.9
	c31.453-18.159,50.829-51.72,50.829-88.039V280.138c0-36.319-19.376-69.878-50.829-88.039L409.829,76.238
	C378.375,58.078,339.624,58.078,308.171,76.238"/>
<path fill="#9496CA" d="M590.38,262.416v143.762L398.163,525.522c-23.116,13.39-51.624,13.442-74.783,0.122L127.618,410.423V262.416
	l187.109,107.606c27.953,16.073,62.36,16.02,90.258-0.149L590.38,262.416z"/>
<path fill="#DBDBEE" d="M590.38,262.416L404.985,369.872c-27.898,16.169-62.306,16.223-90.258,0.149L127.618,262.416l189.607-109.47
	c25.851-14.93,57.697-14.93,83.559,0L590.38,262.416z"/>
<path fill="#2D338F" d="M590.38,406.178v123.415L396.386,641.586c-23.134,13.364-51.639,13.364-74.773,0L127.618,529.593V410.424
	L323.38,525.645c23.16,13.32,51.667,13.268,74.783-0.123L590.38,406.178z"/>
</svg>
