<?xml version="1.0" encoding="utf-8"?>
<!-- Generator: Adobe Illustrator 15.1.0, SVG Export Plug-In . SVG Version: 6.00 Build 0)  -->
<!DOCTYPE svg PUBLIC "-//W3C//DTD SVG 1.1//EN" "http://www.w3.org/Graphics/SVG/1.1/DTD/svg11.dtd">
<svg version="1.1" id="Layer_1" xmlns="http://www.w3.org/2000/svg" xmlns:xlink="http://www.w3.org/1999/xlink" x="0px" y="0px"
	 width="717.75px" height="791.46px" viewBox="0 0 717.75 791.46" enable-background="new 0 0 717.75 791.46" xml:space="preserve">
<path fill="#282964" d="M298.666,15.439L60.458,152.968C23.122,174.523,0.124,214.36,0.124,257.471v275.059
	c0,43.111,22.999,82.947,60.334,104.503l238.208,137.528c37.335,21.556,83.335,21.556,120.668,0l238.21-137.528
	c37.334-21.556,60.333-61.392,60.333-104.503V257.471c0-43.11-22.999-82.947-60.333-104.503L419.334,15.439
	C382.001-6.117,336.001-6.117,298.666,15.439"/>
<path fill="#FFFFFF" d="M308.171,75.237l-200.68,115.862c-31.452,18.161-50.828,51.721-50.828,88.04v231.725
	c0,36.318,19.376,69.878,50.828,88.038l200.68,115.862c31.452,18.158,70.205,18.158,101.659,0l200.678-115.862
	c31.454-18.16,50.83-51.72,50.83-88.038V279.139c0-36.319-19.376-69.878-50.83-88.04L409.83,75.237
	C378.376,57.078,339.623,57.078,308.171,75.237"/>
<path fill="#9496CA" d="M590.382,261.416v143.761l-192.22,119.345c-23.116,13.392-51.622,13.445-74.784,0.123l-195.762-115.22
	V261.416l187.11,107.606c27.952,16.072,62.359,16.02,90.258-0.15L590.382,261.416z"/>
<path fill="#DBDBEE" d="M590.382,261.416L404.985,368.872c-27.899,16.17-62.306,16.223-90.258,0.15l-187.11-107.606l189.608-109.471
	c25.851-14.93,57.698-14.93,83.558,0L590.382,261.416z"/>
<path fill="#2D338F" d="M590.382,405.177v123.416L396.386,640.587c-23.132,13.364-51.64,13.364-74.773,0L127.617,528.593V409.425
	l195.762,115.22c23.162,13.322,51.667,13.269,74.784-0.123L590.382,405.177z"/>
</svg>
