<?xml version="1.0" encoding="UTF-8"?>
<svg id="Layer_1" xmlns="http://www.w3.org/2000/svg" version="1.1" viewBox="200 10 1510 445">
  <defs>
    <style>
      .st0 {
        fill: #292d93;
      }

      .st1 {
        fill: #d9dcfd;
      }

      .st2 {
        fill: #dcdfee;
      }

      .st3 {
        fill: #fff;
      }

      .st4 {
        fill: #959afd;
      }
    </style>
  </defs>
  <g transform="translate(687, -316)">
    <path class="st2" d="M70.48,574.6H10.52v-52.75h10.38v42.37h49.58v10.38Z"/>
    <path class="st2" d="M93.74,532.23v-10.38h44.18c1.89,0,3.72.34,5.4.96,6.04,2.22,10.38,8.04,10.38,14.82,0,8.68-7.1,15.78-15.78,15.78h-23.39s-7.6,0-7.6,0c-.03,0-.05,0-.08,0-2.91.04-5.28,2.41-5.32,5.32v5.48h49.58v10.38h-59.96v-15.78c0-8.68,7.1-15.78,15.78-15.78h31.07c2.91-.04,5.28-2.42,5.32-5.32,0-.03,0-.05,0-.08s0-.05,0-.08c-.04-2.94-2.46-5.32-5.4-5.32h-44.18Z"/>
    <path class="st2" d="M229.26,545.63h45.47c3.67,0,6.7-3.04,6.7-6.7s-3.04-6.7-6.7-6.7h-45.47v-10.38h45.47c9.39,0,17.08,7.69,17.08,17.08,0,7.99-5.56,14.74-13,16.58-1.31.33-2.68.5-4.09.5h-35.09v18.59h-10.38v-28.97Z"/>
    <path class="st2" d="M334.64,545.63h23.27c3.67,0,6.7-3.04,6.7-6.7s-3.04-6.7-6.7-6.7h-45.47v-10.38h45.47c9.39,0,17.08,7.69,17.08,17.08,0,7.99-5.56,14.74-13,16.58l15.59,19.09h-13.4l-15.19-18.59h-26.18v18.59h-10.38v-28.97h22.2Z"/>
    <path class="st2" d="M460.79,541.65v13.15c0,10.89-8.91,19.8-19.8,19.8h-22.95c-10.89,0-19.8-8.91-19.8-19.8v-13.15c0-10.89,8.91-19.8,19.8-19.8h22.95c10.89,0,19.8,8.91,19.8,19.8ZM440.99,564.22c5.18,0,9.42-4.24,9.42-9.42v-13.15c0-5.18-4.24-9.42-9.42-9.42h-22.95c-5.18,0-9.42,4.24-9.42,9.42v13.15c0,5.18,4.24,9.42,9.42,9.42h22.95Z"/>
    <path class="st2" d="M543.96,532.23h-26.09v42.37h-10.38v-42.37h-26.09v-10.38h62.55v10.38Z"/>
    <path class="st2" d="M627.13,541.65v13.15c0,10.89-8.91,19.8-19.8,19.8h-22.95c-10.89,0-19.8-8.91-19.8-19.8v-13.15c0-10.89,8.91-19.8,19.8-19.8h22.95c10.89,0,19.8,8.91,19.8,19.8ZM607.33,564.22c5.18,0,9.42-4.24,9.42-9.42v-13.15c0-5.18-4.24-9.42-9.42-9.42h-22.95c-5.18,0-9.42,4.24-9.42,9.42v13.15c0,5.18,4.24,9.42,9.42,9.42h22.95Z"/>
    <path class="st2" d="M699.92,554.8v-.09h10.38v.09c0,10.89-8.91,19.8-19.8,19.8h-22.95c-10.89,0-19.8-8.91-19.8-19.8v-13.15c0-10.89,8.91-19.8,19.8-19.8h22.95c10.89,0,19.8,8.91,19.8,19.8v.09h-10.38v-.09c0-5.18-4.24-9.42-9.42-9.42h-22.95c-5.18,0-9.42,4.24-9.42,9.42v13.15c0,5.18,4.24,9.42,9.42,9.42h22.95c5.18,0,9.42-4.24,9.42-9.42Z"/>
    <path class="st2" d="M793.47,541.65v13.15c0,10.89-8.91,19.8-19.8,19.8h-22.95c-10.89,0-19.8-8.91-19.8-19.8v-13.15c0-10.89,8.91-19.8,19.8-19.8h22.95c10.89,0,19.8,8.91,19.8,19.8ZM773.67,564.22c5.18,0,9.42-4.24,9.42-9.42v-13.15c0-5.18-4.24-9.42-9.42-9.42h-22.95c-5.18,0-9.42,4.24-9.42,9.42v13.15c0,5.18,4.24,9.42,9.42,9.42h22.95Z"/>
    <path class="st2" d="M874.05,574.6h-59.96v-52.75h10.38v42.37h49.58v10.38Z"/>
  </g>
  <g>
    <path class="st2" d="M412.08,18.78l-134.03,77.38c-21.01,12.13-33.95,34.54-33.95,58.8v154.77c0,24.26,12.94,46.67,33.95,58.8l134.03,77.38c21.01,12.13,46.89,12.13,67.9,0l134.03-77.38c21.01-12.13,33.95-34.54,33.95-58.8v-154.77c0-24.26-12.94-46.67-33.95-58.8L479.97,18.78c-21.01-12.13-46.89-12.13-67.9,0Z"/>
    <path class="st3" d="M417.42,52.42l-112.92,65.19c-17.7,10.22-28.6,29.1-28.6,49.54v130.38c0,20.44,10.9,39.32,28.6,49.54l112.92,65.19c17.7,10.22,39.5,10.22,57.2,0l112.92-65.19c17.7-10.22,28.6-29.1,28.6-49.54v-130.38c0-20.44-10.9-39.32-28.6-49.54l-112.92-65.19c-17.7-10.22-39.5-10.22-57.2,0Z"/>
    <path class="st4" d="M576.21,157.18v80.89l-108.16,67.15c-13.01,7.53-29.05,7.56-42.08.07l-110.15-64.83v-83.28l105.28,60.55c15.73,9.04,35.09,9.01,50.79-.08l104.32-60.46Z"/>
    <path class="st1" d="M576.21,157.18l-104.32,60.46c-15.7,9.1-35.06,9.13-50.79.08l-105.28-60.55,106.69-61.6c14.55-8.4,32.46-8.4,47.02,0l106.68,61.6Z"/>
    <path class="st0" d="M576.21,238.07v69.44l-109.15,63.02c-13.02,7.52-29.06,7.52-42.07,0l-109.15-63.02v-67.05l110.15,64.83c13.03,7.5,29.07,7.47,42.08-.07l108.16-67.15Z"/>
  </g>
</svg>
