<?xml version="1.0" encoding="utf-8"?>
<!-- Generator: Adobe Illustrator 15.1.0, SVG Export Plug-In . SVG Version: 6.00 Build 0)  -->
<!DOCTYPE svg PUBLIC "-//W3C//DTD SVG 1.1//EN" "http://www.w3.org/Graphics/SVG/1.1/DTD/svg11.dtd">
<svg version="1.1" id="Layer_1" xmlns="http://www.w3.org/2000/svg" xmlns:xlink="http://www.w3.org/1999/xlink" x="0px" y="0px"
	 width="685.82px" height="448.71px" viewBox="0 0 685.82 448.71" enable-background="new 0 0 685.82 448.71" xml:space="preserve">
<g>
	<path fill="#DDDFED" d="M47.932,448.715H8.553H0.309v-8.244v-33.656h8.244v33.656h39.379V448.715z"/>
	<path fill="#DDDFED" d="M66.337,415.059v-8.244h35.088c1.505,0,2.951,0.268,4.292,0.762c4.797,1.76,8.244,6.385,8.244,11.773
		c0,6.895-5.641,12.537-12.535,12.537H82.851h-6.038c-0.021,0-0.043,0-0.064,0c-2.31,0.033-4.194,1.918-4.228,4.229
		c0,0.02,0,0.043,0,0.063v4.293h26.215H111.9v8.244H72.52h-8.244v-8.244v-4.293c0-6.895,5.642-12.535,12.537-12.535h18.573h6.04
		c0.021,0,0.042,0,0.063,0c2.311-0.035,4.194-1.918,4.229-4.229c0-0.021,0-0.043,0-0.064s0-0.043,0-0.063
		c-0.034-2.332-1.952-4.229-4.292-4.229H72.52H66.337z"/>
	<path fill="#DDDFED" d="M173.982,425.703h8.244h9.392H210.1c2.912,0,5.323-2.412,5.323-5.322c0-2.912-2.412-5.322-5.323-5.322
		h-18.482h-9.392h-8.244v-8.244h36.117c7.461,0,13.567,6.104,13.567,13.566c0,6.344-4.414,11.707-10.322,13.172
		c-1.041,0.258-2.127,0.395-3.245,0.395h-7.076h-7.961h-7.513h-5.323v14.768h-8.244v-14.768V425.703z"/>
	<path fill="#DDDFED" d="M257.678,425.703h18.483c2.911,0,5.323-2.412,5.323-5.322c0-2.912-2.412-5.322-5.323-5.322h-18.483h-9.391
		h-8.245v-8.244h8.245h5.322h22.551c7.462,0,13.566,6.104,13.566,13.566c0,6.344-4.414,11.707-10.323,13.172l12.384,15.162h-10.644
		l-12.062-14.768H253.61h-5.322v14.768h-8.245v-14.768v-8.244h8.245H257.678z"/>
	<path fill="#DDDFED" d="M357.884,422.541v10.445c0,8.65-7.077,15.729-15.727,15.729h-18.23c-8.65,0-15.728-7.078-15.728-15.729
		v-10.445c0-8.65,7.077-15.727,15.728-15.727h18.23C350.807,406.814,357.884,413.891,357.884,422.541z M342.157,440.471
		c4.116,0,7.483-3.367,7.483-7.484v-10.445c0-4.115-3.367-7.482-7.483-7.482h-18.23c-4.116,0-7.483,3.367-7.483,7.482v10.445
		c0,4.117,3.367,7.484,7.483,7.484H342.157z"/>
	<path fill="#DDDFED" d="M423.946,415.059h-20.721v33.656h-8.245v-33.656h-20.72v-8.244h20.72h8.245h20.721V415.059z"/>
	<path fill="#DDDFED" d="M490.007,422.541v10.445c0,8.65-7.077,15.729-15.728,15.729H456.05c-8.65,0-15.728-7.078-15.728-15.729
		v-10.445c0-8.65,7.077-15.727,15.728-15.727h18.229C482.93,406.814,490.007,413.891,490.007,422.541z M474.279,440.471
		c4.116,0,7.483-3.367,7.483-7.484v-10.445c0-4.115-3.367-7.482-7.483-7.482H456.05c-4.116,0-7.483,3.367-7.483,7.482v10.445
		c0,4.117,3.367,7.484,7.483,7.484H474.279z"/>
	<path fill="#DDDFED" d="M547.825,432.986v-0.068h8.243v0.068c0,8.65-7.077,15.729-15.728,15.729h-18.229
		c-8.65,0-15.729-7.078-15.729-15.729v-10.445c0-8.65,7.078-15.727,15.729-15.727h18.229c8.65,0,15.728,7.076,15.728,15.727v0.07
		h-8.243v-0.07c0-4.115-3.367-7.482-7.484-7.482h-18.229c-4.117,0-7.484,3.367-7.484,7.482v10.445c0,4.117,3.367,7.484,7.484,7.484
		h18.229C544.458,440.471,547.825,437.104,547.825,432.986z"/>
	<path fill="#DDDFED" d="M622.129,422.541v10.445c0,8.65-7.077,15.729-15.728,15.729h-18.229c-8.65,0-15.728-7.078-15.728-15.729
		v-10.445c0-8.65,7.077-15.727,15.728-15.727h18.229C615.052,406.814,622.129,413.891,622.129,422.541z M606.401,440.471
		c4.117,0,7.484-3.367,7.484-7.484v-10.445c0-4.115-3.367-7.482-7.484-7.482h-18.229c-4.116,0-7.483,3.367-7.483,7.482v10.445
		c0,4.117,3.367,7.484,7.483,7.484H606.401z"/>
	<path fill="#DDDFED" d="M686.13,448.715h-39.38h-8.244v-8.244v-33.656h8.244v33.656h39.38V448.715z"/>
</g>
<g>
	<path fill="#DDDFED" d="M319.258,7.226L212.797,68.69c-16.686,9.634-26.965,27.438-26.965,46.705v122.932
		c0,19.266,10.279,37.07,26.965,46.703l106.461,61.465c16.686,9.635,37.244,9.635,53.929,0l106.461-61.465
		c16.686-9.633,26.965-27.438,26.965-46.703V115.395c0-19.267-10.279-37.07-26.965-46.705L373.188,7.226
		C356.502-2.409,335.944-2.409,319.258,7.226"/>
	<path fill="#FFFFFF" d="M323.506,33.951l-89.689,51.781c-14.056,8.116-22.716,23.115-22.716,39.347v103.564
		c0,16.23,8.66,31.229,22.716,39.346l89.689,51.781c14.057,8.115,31.376,8.115,45.433,0l89.688-51.781
		c14.058-8.117,22.718-23.115,22.718-39.346V125.079c0-16.231-8.66-31.23-22.718-39.347l-89.688-51.781
		C354.883,25.834,337.563,25.834,323.506,33.951"/>
	<path fill="#9496CA" d="M449.633,117.158v64.25l-85.907,53.338c-10.331,5.984-23.072,6.008-33.422,0.055l-87.491-51.494v-66.149
		l83.624,48.091c12.493,7.183,27.87,7.161,40.338-0.067L449.633,117.158z"/>
	<path fill="#DBDBEE" d="M449.633,117.158l-82.858,48.024c-12.468,7.228-27.845,7.25-40.338,0.067l-83.624-48.091l84.74-48.924
		c11.553-6.673,25.786-6.673,37.343,0L449.633,117.158z"/>
	<path fill="#2D338F" d="M449.633,181.408v55.156l-86.701,50.055c-10.339,5.973-23.079,5.973-33.418,0l-86.701-50.055v-53.258
		l87.491,51.494c10.351,5.953,23.091,5.93,33.422-0.055L449.633,181.408z"/>
</g>
</svg>
