<?xml version="1.0" encoding="utf-8"?>
<!-- Generator: Adobe Illustrator 15.1.0, SVG Export Plug-In . SVG Version: 6.00 Build 0)  -->
<!DOCTYPE svg PUBLIC "-//W3C//DTD SVG 1.1//EN" "http://www.w3.org/Graphics/SVG/1.1/DTD/svg11.dtd">
<svg version="1.1" id="Layer_1" xmlns="http://www.w3.org/2000/svg" xmlns:xlink="http://www.w3.org/1999/xlink" x="0px" y="0px"
	 width="705.2px" height="460.64px" viewBox="0 0 705.2 460.64" enable-background="new 0 0 705.2 460.64" xml:space="preserve">
<g>
	<path fill="#282964" d="M49.309,462.095H8.813H0.335v-8.479v-34.61h8.478v34.61h40.496V462.095z"/>
	<path fill="#282964" d="M68.229,427.484v-8.479h36.082c1.548,0,3.035,0.277,4.413,0.783c4.934,1.812,8.478,6.566,8.478,12.108
		c0,7.091-5.801,12.893-12.891,12.893l-19.101-0.001h-6.209c-0.021,0-0.044,0.001-0.065,0.001c-2.376,0.034-4.313,1.972-4.348,4.348
		c0,0.021,0,0.043,0,0.064v4.414h26.957h13.538v8.479H74.588H66.11v-8.479v-4.414c0-7.09,5.802-12.891,12.891-12.891h19.101h6.21
		c0.022,0,0.043,0,0.065,0c2.376-0.035,4.313-1.972,4.348-4.348c0.001-0.022,0.001-0.044,0.001-0.066c0-0.021,0-0.044-0.001-0.064
		c-0.035-2.398-2.007-4.349-4.413-4.349H74.588H68.229z"/>
	<path fill="#282964" d="M178.916,438.432h8.478h9.657h19.006c2.994,0,5.474-2.48,5.474-5.474c0-2.995-2.48-5.474-5.474-5.474
		H197.05h-9.657h-8.478v-8.479h37.14c7.673,0,13.952,6.278,13.952,13.952c0,6.523-4.539,12.038-10.615,13.545
		c-1.07,0.265-2.188,0.405-3.337,0.405h-7.277h-8.186h-7.726h-5.474v15.187h-8.478v-15.187V438.432z"/>
	<path fill="#282964" d="M264.978,438.432h19.007c2.993,0,5.474-2.48,5.474-5.474c0-2.995-2.481-5.474-5.474-5.474h-19.007h-9.657
		h-8.478v-8.479h8.478h5.473h23.191c7.673,0,13.951,6.278,13.951,13.952c0,6.523-4.539,12.038-10.616,13.544l12.735,15.593h-10.945
		l-12.403-15.187h-15.913h-5.473v15.187h-8.478v-15.187v-8.477h8.478H264.978z"/>
	<path fill="#282964" d="M368.018,435.179v10.743c0,8.896-7.277,16.173-16.173,16.173h-18.747c-8.896,0-16.173-7.277-16.173-16.173
		v-10.743c0-8.896,7.277-16.173,16.173-16.173h18.747C360.74,419.006,368.018,426.283,368.018,435.179z M351.844,453.616
		c4.233,0,7.696-3.462,7.696-7.694v-10.743c0-4.231-3.463-7.694-7.696-7.694h-18.747c-4.232,0-7.695,3.463-7.695,7.694v10.743
		c0,4.232,3.463,7.694,7.695,7.694H351.844z"/>
	<path fill="#282964" d="M435.945,427.484h-21.308v34.61h-8.478v-34.61h-21.308v-8.479h21.308h8.478h21.308V427.484z"/>
	<path fill="#282964" d="M503.872,435.179v10.743c0,8.896-7.277,16.173-16.173,16.173h-18.746c-8.896,0-16.173-7.277-16.173-16.173
		v-10.743c0-8.896,7.277-16.173,16.173-16.173h18.746C496.595,419.006,503.872,426.283,503.872,435.179z M487.699,453.616
		c4.233,0,7.695-3.462,7.695-7.694v-10.743c0-4.231-3.462-7.694-7.695-7.694h-18.746c-4.232,0-7.694,3.463-7.694,7.694v10.743
		c0,4.232,3.462,7.694,7.694,7.694H487.699z"/>
	<path fill="#282964" d="M563.323,445.922v-0.073h8.478v0.073c0,8.896-7.277,16.173-16.173,16.173h-18.746
		c-8.896,0-16.174-7.277-16.174-16.173v-10.743c0-8.896,7.278-16.173,16.174-16.173h18.746c8.896,0,16.173,7.277,16.173,16.173
		v0.073h-8.478v-0.073c0-4.231-3.462-7.694-7.695-7.694h-18.746c-4.233,0-7.696,3.463-7.696,7.694v10.743
		c0,4.232,3.463,7.694,7.696,7.694h18.746C559.861,453.616,563.323,450.154,563.323,445.922z"/>
	<path fill="#282964" d="M639.728,435.179v10.743c0,8.896-7.277,16.173-16.173,16.173H604.81c-8.896,0-16.173-7.277-16.173-16.173
		v-10.743c0-8.896,7.276-16.173,16.173-16.173h18.745C632.45,419.006,639.728,426.283,639.728,435.179z M623.555,453.616
		c4.233,0,7.696-3.462,7.696-7.694v-10.743c0-4.231-3.463-7.694-7.696-7.694H604.81c-4.233,0-7.695,3.463-7.695,7.694v10.743
		c0,4.232,3.462,7.694,7.695,7.694H623.555z"/>
	<path fill="#282964" d="M705.536,462.095h-40.494h-8.479v-8.479v-34.61h8.479v34.61h40.494V462.095z"/>
</g>
<path fill="#282964" d="M328.296,8.132L218.828,71.333c-17.158,9.906-27.726,28.213-27.726,48.024V245.76
	c0,19.813,10.568,38.119,27.726,48.025l109.469,63.201c17.157,9.905,38.296,9.905,55.455,0l109.467-63.201
	c17.158-9.906,27.728-28.213,27.728-48.025V119.357c0-19.811-10.569-38.118-27.728-48.024L383.751,8.132
	C366.593-1.775,345.453-1.775,328.296,8.132"/>
<path fill="#FFFFFF" d="M332.664,35.612l-92.222,53.245c-14.455,8.345-23.359,23.767-23.359,40.458v106.489
	c0,16.69,8.904,32.113,23.359,40.458l92.222,53.244c14.455,8.346,32.263,8.346,46.717,0l92.222-53.244
	c14.455-8.345,23.36-23.768,23.36-40.458V129.314c0-16.69-8.905-32.113-23.36-40.458l-92.222-53.245
	C364.927,27.267,347.119,27.267,332.664,35.612"/>
<path fill="#9496CA" d="M462.354,121.169v66.066l-88.334,54.846c-10.624,6.154-23.724,6.178-34.367,0.057l-89.963-52.951v-68.017
	l85.987,49.451c12.846,7.387,28.657,7.363,41.478-0.068L462.354,121.169z"/>
<path fill="#DBDBEE" d="M462.354,121.169l-85.199,49.382c-12.821,7.431-28.632,7.455-41.478,0.068l-85.987-49.451l87.135-50.306
	c11.88-6.862,26.515-6.862,38.399,0L462.354,121.169z"/>
<path fill="#2D338F" d="M462.354,187.236v56.715l-89.151,51.467c-10.631,6.143-23.731,6.143-34.362,0l-89.15-51.467v-54.764
	l89.963,52.95c10.643,6.123,23.743,6.099,34.367-0.056L462.354,187.236z"/>
</svg>
