<?xml version="1.0" encoding="utf-8"?>
<!-- Generator: Adobe Illustrator 15.1.0, SVG Export Plug-In . SVG Version: 6.00 Build 0)  -->
<!DOCTYPE svg PUBLIC "-//W3C//DTD SVG 1.1//EN" "http://www.w3.org/Graphics/SVG/1.1/DTD/svg11.dtd">
<svg version="1.1" id="Layer_1" xmlns="http://www.w3.org/2000/svg" xmlns:xlink="http://www.w3.org/1999/xlink" x="0px" y="0px"
	 width="1275.02px" height="195.6px" viewBox="0 0 1275.02 195.6" enable-background="new 0 0 1275.02 195.6" xml:space="preserve">
<g>
	<path fill="#DDDFED" d="M281.012,130.195h-61.317h-12.838v-12.838V64.952h12.838v52.405h61.317V130.195z"/>
	<path fill="#DDDFED" d="M309.66,77.79V64.952h54.636c2.345,0,4.598,0.418,6.685,1.186c7.468,2.744,12.834,9.942,12.834,18.334
		c0,10.738-8.783,19.521-19.519,19.521h-28.921h-9.404c-0.032,0-0.065,0-0.098,0c-3.597,0.055-6.531,2.986-6.584,6.585
		c0,0.033,0,0.066,0,0.099v6.682h40.818h20.499v12.838h-61.317h-12.837v-12.838v-6.682c0-10.737,8.784-19.519,19.519-19.519h28.922
		h9.403c0.033,0,0.066,0,0.099,0c3.596-0.056,6.531-2.988,6.586-6.586c0-0.033,0-0.066,0-0.1c0-0.033,0-0.065,0-0.099
		c-0.055-3.632-3.042-6.583-6.685-6.583h-45.007H309.66z"/>
	<path fill="#DDDFED" d="M477.261,94.364h12.837h14.623h28.778c4.535,0,8.287-3.755,8.287-8.286c0-4.535-3.752-8.288-8.287-8.288
		h-28.778h-14.623h-12.837V64.952h56.238c11.617,0,21.126,9.505,21.126,21.126c0,9.877-6.872,18.229-16.075,20.51
		c-1.62,0.401-3.311,0.611-5.051,0.611h-11.018h-12.399h-11.695h-8.289v22.996h-12.837v-22.996V94.364z"/>
	<path fill="#DDDFED" d="M607.577,94.364h28.777c4.535,0,8.291-3.755,8.291-8.286c0-4.535-3.756-8.288-8.291-8.288h-28.777h-14.623
		h-12.839V64.952h12.839h8.287h35.113c11.619,0,21.125,9.505,21.125,21.126c0,9.877-6.874,18.228-16.073,20.508l19.283,23.609
		h-16.575l-18.78-22.996h-24.093h-8.287v22.996h-12.839v-22.996V94.364h12.839H607.577z"/>
	<path fill="#DDDFED" d="M763.598,89.44v16.267c0,13.468-11.021,24.488-24.489,24.488h-28.387
		c-13.468,0-24.488-11.021-24.488-24.488V89.44c0-13.47,11.021-24.488,24.488-24.488h28.387
		C752.576,64.952,763.598,75.97,763.598,89.44z M739.108,117.357c6.41,0,11.651-5.243,11.651-11.65V89.44
		c0-6.409-5.241-11.65-11.651-11.65h-28.387c-6.406,0-11.65,5.241-11.65,11.65v16.267c0,6.407,5.244,11.65,11.65,11.65H739.108z"/>
	<path fill="#DDDFED" d="M866.452,77.79h-32.263v52.405h-12.839V77.79h-32.263V64.952h32.263h12.839h32.263V77.79z"/>
	<path fill="#DDDFED" d="M969.308,89.44v16.267c0,13.468-11.02,24.488-24.487,24.488h-28.388c-13.469,0-24.488-11.021-24.488-24.488
		V89.44c0-13.47,11.02-24.488,24.488-24.488h28.388C958.288,64.952,969.308,75.97,969.308,89.44z M944.82,117.357
		c6.408,0,11.649-5.243,11.649-11.65V89.44c0-6.409-5.241-11.65-11.649-11.65h-28.388c-6.407,0-11.649,5.241-11.649,11.65v16.267
		c0,6.407,5.242,11.65,11.649,11.65H944.82z"/>
	<path fill="#DDDFED" d="M1059.328,105.707v-0.109h12.837v0.109c0,13.468-11.019,24.488-24.488,24.488h-28.387
		c-13.469,0-24.49-11.021-24.49-24.488V89.44c0-13.47,11.021-24.488,24.49-24.488h28.387c13.47,0,24.488,11.018,24.488,24.488v0.11
		h-12.837v-0.11c0-6.409-5.242-11.65-11.651-11.65h-28.387c-6.408,0-11.651,5.241-11.651,11.65v16.267
		c0,6.407,5.243,11.65,11.651,11.65h28.387C1054.086,117.357,1059.328,112.114,1059.328,105.707z"/>
	<path fill="#DDDFED" d="M1175.021,89.44v16.267c0,13.468-11.021,24.488-24.489,24.488h-28.388
		c-13.467,0-24.487-11.021-24.487-24.488V89.44c0-13.47,11.021-24.488,24.487-24.488h28.388
		C1163.999,64.952,1175.021,75.97,1175.021,89.44z M1150.531,117.357c6.41,0,11.65-5.243,11.65-11.65V89.44
		c0-6.409-5.24-11.65-11.65-11.65h-28.388c-6.405,0-11.65,5.241-11.65,11.65v16.267c0,6.407,5.245,11.65,11.65,11.65H1150.531z"/>
	<path fill="#DDDFED" d="M1274.667,130.195h-61.317h-12.837v-12.838V64.952h12.837v52.405h61.317V130.195z"/>
</g>
<path fill="#DDDFED" d="M73.424,3.86l-58.87,33.988C5.328,43.175-0.357,53.021-0.357,63.674v67.978
	c0,10.654,5.685,20.5,14.911,25.826l58.87,33.988c9.227,5.328,20.595,5.328,29.822,0l58.87-33.988
	c9.227-5.326,14.911-15.172,14.911-25.826V63.674c0-10.653-5.685-20.499-14.911-25.826L103.247,3.86
	C94.019-1.467,82.651-1.467,73.424,3.86"/>
<path fill="#FFFFFF" d="M75.774,18.638L26.178,47.272C18.405,51.76,13.617,60.054,13.617,69.03v57.267
	c0,8.977,4.788,17.271,12.562,21.758l49.596,28.635c7.772,4.488,17.35,4.488,25.123,0l49.595-28.635
	c7.774-4.486,12.563-12.781,12.563-21.758V69.03c0-8.976-4.788-17.27-12.563-21.758l-49.595-28.634
	C93.124,14.15,83.546,14.15,75.774,18.638"/>
<path fill="#9496CA" d="M145.518,64.65v35.528l-47.504,29.496c-5.713,3.309-12.758,3.322-18.481,0.029l-48.381-28.475V64.65
	l46.242,26.592c6.908,3.973,15.411,3.961,22.306-0.035L145.518,64.65z"/>
<path fill="#DBDBEE" d="M145.518,64.65L99.7,91.207c-6.895,3.996-15.397,4.008-22.306,0.035L31.152,64.65l46.859-27.054
	c6.389-3.69,14.259-3.69,20.65,0L145.518,64.65z"/>
<path fill="#2D338F" d="M145.518,100.18v30.5l-47.943,27.678c-5.718,3.303-12.762,3.303-18.479,0L31.152,130.68v-29.451
	l48.381,28.475c5.724,3.293,12.769,3.279,18.481-0.029L145.518,100.18z"/>
</svg>
