<?xml version="1.0" encoding="utf-8"?>
<!-- Generator: Adobe Illustrator 15.1.0, SVG Export Plug-In . SVG Version: 6.00 Build 0)  -->
<!DOCTYPE svg PUBLIC "-//W3C//DTD SVG 1.1//EN" "http://www.w3.org/Graphics/SVG/1.1/DTD/svg11.dtd">
<svg version="1.1" id="Layer_1" xmlns="http://www.w3.org/2000/svg" xmlns:xlink="http://www.w3.org/1999/xlink" x="0px" y="0px"
	 width="1339.02px" height="211.16px" viewBox="0 0 1339.02 211.16" enable-background="new 0 0 1339.02 211.16"
	 xml:space="preserve">
<g>
	<path fill="#282964" d="M346.012,130.195h-61.317h-12.838v-12.838V64.952h12.838v52.405h61.317V130.195z"/>
	<path fill="#282964" d="M374.66,77.79V64.952h54.636c2.345,0,4.598,0.418,6.685,1.186c7.468,2.744,12.834,9.942,12.834,18.334
		c0,10.738-8.783,19.521-19.519,19.521h-28.921h-9.404c-0.032,0-0.065,0-0.098,0c-3.597,0.055-6.531,2.986-6.584,6.585
		c0,0.033,0,0.066,0,0.099v6.682h40.818h20.499v12.838h-61.317h-12.837v-12.838v-6.682c0-10.737,8.784-19.519,19.519-19.519h28.922
		h9.403c0.033,0,0.066,0,0.099,0c3.596-0.056,6.531-2.988,6.586-6.586c0-0.033,0-0.066,0-0.1c0-0.033,0-0.065,0-0.099
		c-0.055-3.632-3.042-6.583-6.685-6.583h-45.007H374.66z"/>
	<path fill="#282964" d="M542.261,94.364h12.837h14.623h28.778c4.535,0,8.287-3.755,8.287-8.286c0-4.535-3.752-8.288-8.287-8.288
		h-28.778h-14.623h-12.837V64.952h56.238c11.617,0,21.126,9.505,21.126,21.126c0,9.877-6.872,18.229-16.075,20.51
		c-1.62,0.401-3.311,0.611-5.051,0.611h-11.018h-12.399h-11.695h-8.289v22.996h-12.837v-22.996V94.364z"/>
	<path fill="#282964" d="M672.577,94.364h28.777c4.535,0,8.291-3.755,8.291-8.286c0-4.535-3.756-8.288-8.291-8.288h-28.777h-14.623
		h-12.839V64.952h12.839h8.287h35.113c11.619,0,21.125,9.505,21.125,21.126c0,9.877-6.874,18.228-16.073,20.508l19.283,23.609
		h-16.575l-18.78-22.996h-24.093h-8.287v22.996h-12.839v-22.996V94.364h12.839H672.577z"/>
	<path fill="#282964" d="M828.598,89.44v16.267c0,13.468-11.021,24.488-24.489,24.488h-28.387
		c-13.468,0-24.488-11.021-24.488-24.488V89.44c0-13.47,11.021-24.488,24.488-24.488h28.387
		C817.576,64.952,828.598,75.97,828.598,89.44z M804.108,117.357c6.41,0,11.651-5.243,11.651-11.65V89.44
		c0-6.409-5.241-11.65-11.651-11.65h-28.387c-6.406,0-11.65,5.241-11.65,11.65v16.267c0,6.407,5.244,11.65,11.65,11.65H804.108z"/>
	<path fill="#282964" d="M931.452,77.79h-32.263v52.405h-12.839V77.79h-32.263V64.952h32.263h12.839h32.263V77.79z"/>
	<path fill="#282964" d="M1034.308,89.44v16.267c0,13.468-11.02,24.488-24.487,24.488h-28.388
		c-13.469,0-24.488-11.021-24.488-24.488V89.44c0-13.47,11.02-24.488,24.488-24.488h28.388
		C1023.288,64.952,1034.308,75.97,1034.308,89.44z M1009.82,117.357c6.408,0,11.649-5.243,11.649-11.65V89.44
		c0-6.409-5.241-11.65-11.649-11.65h-28.388c-6.407,0-11.649,5.241-11.649,11.65v16.267c0,6.407,5.242,11.65,11.649,11.65H1009.82z"
		/>
	<path fill="#282964" d="M1124.328,105.707v-0.109h12.837v0.109c0,13.468-11.019,24.488-24.488,24.488h-28.387
		c-13.469,0-24.49-11.021-24.49-24.488V89.44c0-13.47,11.021-24.488,24.49-24.488h28.387c13.47,0,24.488,11.018,24.488,24.488v0.11
		h-12.837v-0.11c0-6.409-5.242-11.65-11.651-11.65h-28.387c-6.408,0-11.651,5.241-11.651,11.65v16.267
		c0,6.407,5.243,11.65,11.651,11.65h28.387C1119.086,117.357,1124.328,112.114,1124.328,105.707z"/>
	<path fill="#282964" d="M1240.021,89.44v16.267c0,13.468-11.021,24.488-24.489,24.488h-28.388
		c-13.467,0-24.487-11.021-24.487-24.488V89.44c0-13.47,11.021-24.488,24.487-24.488h28.388
		C1228.999,64.952,1240.021,75.97,1240.021,89.44z M1215.531,117.357c6.41,0,11.65-5.243,11.65-11.65V89.44
		c0-6.409-5.24-11.65-11.65-11.65h-28.388c-6.405,0-11.65,5.241-11.65,11.65v16.267c0,6.407,5.245,11.65,11.65,11.65H1215.531z"/>
	<path fill="#282964" d="M1339.667,130.195h-61.317h-12.837v-12.838V64.952h12.837v52.405h61.317V130.195z"/>
</g>
<path fill="#282964" d="M80.293,4.178L16.74,40.869C6.78,46.62,0.643,57.249,0.643,68.75v73.385c0,11.502,6.137,22.13,16.097,27.88
	l63.553,36.692c9.96,5.752,22.232,5.752,32.194,0l63.552-36.692c9.96-5.75,16.097-16.378,16.097-27.88V68.75
	c0-11.5-6.137-22.129-16.097-27.88L112.487,4.178C102.525-1.573,90.253-1.573,80.293,4.178"/>
<path fill="#FFFFFF" d="M82.829,20.131L29.289,51.042c-8.392,4.846-13.561,13.799-13.561,23.489v61.822
	c0,9.69,5.169,18.645,13.561,23.488l53.541,30.912c8.391,4.846,18.729,4.846,27.122,0l53.54-30.912
	c8.393-4.844,13.562-13.798,13.562-23.488V74.531c0-9.689-5.169-18.643-13.562-23.489l-53.54-30.911
	C101.559,15.286,91.22,15.286,82.829,20.131"/>
<path fill="#9496CA" d="M158.121,69.803v38.354l-51.282,31.843c-6.167,3.571-13.772,3.586-19.951,0.031l-52.229-30.739V69.803
	l49.92,28.708c7.458,4.289,16.637,4.276,24.08-0.038L158.121,69.803z"/>
<path fill="#DBDBEE" d="M158.121,69.803l-49.462,28.669c-7.443,4.314-16.622,4.327-24.08,0.038l-49.92-28.708l50.586-29.206
	c6.896-3.984,15.393-3.984,22.293,0L158.121,69.803z"/>
<path fill="#2D338F" d="M158.121,108.158v32.927l-51.756,29.879c-6.173,3.565-13.777,3.565-19.95,0l-51.756-29.879v-31.794
	l52.229,30.739c6.179,3.555,13.784,3.54,19.951-0.031L158.121,108.158z"/>
</svg>
