<?xml version="1.0" encoding="utf-8"?>
<!-- Generator: Adobe Illustrator 15.1.0, SVG Export Plug-In . SVG Version: 6.00 Build 0)  -->
<!DOCTYPE svg PUBLIC "-//W3C//DTD SVG 1.1//EN" "http://www.w3.org/Graphics/SVG/1.1/DTD/svg11.dtd">
<svg version="1.1" id="Layer_1" xmlns="http://www.w3.org/2000/svg" xmlns:xlink="http://www.w3.org/1999/xlink" x="0px" y="0px"
	 width="1826.96px" height="211.16px" viewBox="0 0 1826.96 211.16" enable-background="new 0 0 1826.96 211.16"
	 xml:space="preserve">
<g>
	<path fill="#282964" d="M387.422,153.998H298.55h-18.607v-18.607V59.437h18.607v75.954h88.872V153.998z"/>
	<path fill="#282964" d="M428.944,78.043V59.437h79.188c3.398,0,6.664,0.606,9.688,1.718c10.824,3.978,18.602,14.411,18.602,26.573
		c0,15.564-12.73,28.292-28.29,28.292h-41.918h-13.63c-0.047,0-0.096,0-0.142,0c-5.212,0.081-9.467,4.331-9.542,9.547
		c0,0.045,0,0.095,0,0.143v9.682h59.161h29.711v18.607H442.9h-18.605v-18.607v-9.682c0-15.563,12.73-28.292,28.289-28.292h41.919
		h13.629c0.048,0,0.097,0,0.144,0c5.211-0.081,9.466-4.331,9.545-9.545c0-0.049,0-0.097,0-0.145c0-0.047,0-0.094,0-0.143
		c-0.079-5.265-4.408-9.541-9.688-9.541H442.9H428.944z"/>
	<path fill="#282964" d="M671.861,102.066h18.606h21.193h41.712c6.572,0,12.01-5.442,12.01-12.01c0-6.572-5.438-12.013-12.01-12.013
		h-41.712h-21.193h-18.606V59.437h81.512c16.837,0,30.618,13.777,30.618,30.62c0,14.315-9.959,26.421-23.3,29.727
		c-2.346,0.579-4.797,0.886-7.318,0.886h-15.971h-17.972h-16.949h-12.014v33.329h-18.606v-33.329V102.066z"/>
	<path fill="#282964" d="M860.74,102.066h41.711c6.57,0,12.015-5.442,12.015-12.01c0-6.572-5.444-12.013-12.015-12.013H860.74
		h-21.195h-18.608V59.437h18.608h12.012h50.895c16.838,0,30.616,13.777,30.616,30.62c0,14.315-9.962,26.419-23.296,29.723
		l27.947,34.219h-24.023l-27.218-33.329h-34.921h-12.012v33.329h-18.608v-33.329v-18.603h18.608H860.74z"/>
	<path fill="#282964" d="M1086.871,94.928v23.578c0,19.521-15.973,35.492-35.492,35.492h-41.143
		c-19.521,0-35.492-15.972-35.492-35.492V94.928c0-19.523,15.972-35.492,35.492-35.492h41.143
		C1070.898,59.437,1086.871,75.405,1086.871,94.928z M1051.379,135.391c9.293,0,16.887-7.598,16.887-16.885V94.928
		c0-9.288-7.594-16.885-16.887-16.885h-41.143c-9.285,0-16.888,7.597-16.888,16.885v23.578c0,9.287,7.603,16.885,16.888,16.885
		H1051.379z"/>
	<path fill="#282964" d="M1235.95,78.043h-46.765v75.955h-18.605V78.043h-46.763V59.437h46.763h18.605h46.765V78.043z"/>
	<path fill="#282964" d="M1385.024,94.928v23.578c0,19.521-15.971,35.492-35.492,35.492h-41.144
		c-19.523,0-35.494-15.972-35.494-35.492V94.928c0-19.523,15.971-35.492,35.494-35.492h41.144
		C1369.054,59.437,1385.024,75.405,1385.024,94.928z M1349.532,135.391c9.289,0,16.887-7.598,16.887-16.885V94.928
		c0-9.288-7.598-16.885-16.887-16.885h-41.144c-9.286,0-16.883,7.597-16.883,16.885v23.578c0,9.287,7.597,16.885,16.883,16.885
		H1349.532z"/>
	<path fill="#282964" d="M1515.499,118.506v-0.157h18.606v0.157c0,19.521-15.969,35.492-35.492,35.492h-41.146
		c-19.521,0-35.493-15.972-35.493-35.492V94.928c0-19.523,15.973-35.492,35.493-35.492h41.146c19.523,0,35.492,15.969,35.492,35.492
		v0.16h-18.606v-0.16c0-9.288-7.598-16.885-16.886-16.885h-41.146c-9.286,0-16.887,7.597-16.887,16.885v23.578
		c0,9.287,7.601,16.885,16.887,16.885h41.146C1507.901,135.391,1515.499,127.793,1515.499,118.506z"/>
	<path fill="#282964" d="M1683.182,94.928v23.578c0,19.521-15.973,35.492-35.494,35.492h-41.144
		c-19.52,0-35.493-15.972-35.493-35.492V94.928c0-19.523,15.974-35.492,35.493-35.492h41.144
		C1667.209,59.437,1683.182,75.405,1683.182,94.928z M1647.688,135.391c9.291,0,16.885-7.598,16.885-16.885V94.928
		c0-9.288-7.594-16.885-16.885-16.885h-41.144c-9.284,0-16.887,7.597-16.887,16.885v23.578c0,9.287,7.603,16.885,16.887,16.885
		H1647.688z"/>
	<path fill="#282964" d="M1827.606,153.998h-88.87h-18.605v-18.607V59.437h18.605v75.954h88.87V153.998z"/>
</g>
<path fill="#282964" d="M80.293,4.178L16.74,40.869C6.78,46.62,0.643,57.249,0.643,68.75v73.385c0,11.502,6.137,22.13,16.097,27.88
	l63.553,36.692c9.96,5.752,22.232,5.752,32.194,0l63.552-36.692c9.96-5.75,16.097-16.378,16.097-27.88V68.75
	c0-11.5-6.137-22.129-16.097-27.88L112.487,4.178C102.525-1.573,90.253-1.573,80.293,4.178"/>
<path fill="#FFFFFF" d="M82.829,20.131L29.289,51.042c-8.392,4.846-13.561,13.799-13.561,23.489v61.822
	c0,9.69,5.169,18.645,13.561,23.488l53.541,30.912c8.391,4.846,18.729,4.846,27.122,0l53.54-30.912
	c8.393-4.844,13.562-13.798,13.562-23.488V74.531c0-9.689-5.169-18.643-13.562-23.489l-53.54-30.911
	C101.559,15.286,91.22,15.286,82.829,20.131"/>
<path fill="#9496CA" d="M158.121,69.803v38.354l-51.282,31.843c-6.167,3.571-13.772,3.586-19.951,0.031l-52.229-30.739V69.803
	l49.92,28.708c7.458,4.289,16.637,4.276,24.08-0.038L158.121,69.803z"/>
<path fill="#DBDBEE" d="M158.121,69.803l-49.462,28.669c-7.443,4.314-16.622,4.327-24.08,0.038l-49.92-28.708l50.586-29.206
	c6.896-3.984,15.393-3.984,22.293,0L158.121,69.803z"/>
<path fill="#2D338F" d="M158.121,108.158v32.927l-51.756,29.879c-6.173,3.565-13.777,3.565-19.95,0l-51.756-29.879v-31.794
	l52.229,30.739c6.179,3.555,13.784,3.54,19.951-0.031L158.121,108.158z"/>
</svg>
