<?xml version="1.0" encoding="utf-8"?>
<!-- Generator: Adobe Illustrator 15.1.0, SVG Export Plug-In . SVG Version: 6.00 Build 0)  -->
<!DOCTYPE svg PUBLIC "-//W3C//DTD SVG 1.1//EN" "http://www.w3.org/Graphics/SVG/1.1/DTD/svg11.dtd">
<svg version="1.1" id="Layer_1" xmlns="http://www.w3.org/2000/svg" xmlns:xlink="http://www.w3.org/1999/xlink" x="0px" y="0px"
	 width="2174.96px" height="211.16px" viewBox="0 0 2174.96 211.16" enable-background="new 0 0 2174.96 211.16"
	 xml:space="preserve">
<g>
	<path fill="#DDDFED" d="M477.369,166.472H372.634h-21.928v-21.929V55.032h21.928v89.511h104.735V166.472z"/>
	<path fill="#DDDFED" d="M526.302,76.96V55.032h93.322c4.005,0,7.853,0.714,11.418,2.024c12.755,4.688,21.922,16.983,21.922,31.316
		c0,18.342-15.003,33.342-33.34,33.342h-49.399h-16.063c-0.055,0-0.112,0-0.167,0c-6.143,0.095-11.157,5.104-11.246,11.25
		c0,0.054,0,0.112,0,0.169v11.409h69.721h35.015v21.929H542.749h-21.926v-21.929v-11.409c0-18.342,15.003-33.342,33.339-33.342
		h49.401h16.062c0.057,0,0.114,0,0.168,0c6.142-0.095,11.156-5.103,11.25-11.249c0-0.057,0-0.114,0-0.17c0-0.056,0-0.111,0-0.169
		c-0.093-6.205-5.196-11.244-11.418-11.244h-76.875H526.302z"/>
	<path fill="#DDDFED" d="M812.577,105.271h21.927h24.977h49.157c7.745,0,14.152-6.414,14.152-14.154
		c0-7.746-6.407-14.157-14.152-14.157H859.48h-24.977h-21.927V55.032h96.061c19.842,0,36.083,16.236,36.083,36.085
		c0,16.87-11.737,31.137-27.459,35.032c-2.764,0.683-5.652,1.044-8.624,1.044h-18.821h-21.18h-19.975h-14.158v39.278h-21.927
		v-39.278V105.271z"/>
	<path fill="#DDDFED" d="M1035.168,105.271h49.155c7.743,0,14.159-6.414,14.159-14.154c0-7.746-6.416-14.157-14.159-14.157h-49.155
		h-24.979h-21.93V55.032h21.93h14.155h59.979c19.844,0,36.081,16.236,36.081,36.085c0,16.87-11.739,31.135-27.454,35.028
		l32.937,40.326h-28.313l-32.075-39.278h-41.154h-14.155v39.278h-21.93v-39.278v-21.922h21.93H1035.168z"/>
	<path fill="#DDDFED" d="M1301.66,96.859v27.786c0,23.005-18.823,41.827-41.827,41.827h-48.486
		c-23.004,0-41.827-18.822-41.827-41.827V96.859c0-23.008,18.823-41.827,41.827-41.827h48.486
		C1282.837,55.032,1301.66,73.851,1301.66,96.859z M1259.833,144.543c10.951,0,19.901-8.954,19.901-19.898V96.859
		c0-10.946-8.95-19.898-19.901-19.898h-48.486c-10.942,0-19.901,8.952-19.901,19.898v27.786c0,10.944,8.959,19.898,19.901,19.898
		H1259.833z"/>
	<path fill="#DDDFED" d="M1477.348,76.96h-55.111v89.511h-21.926V76.96h-55.109V55.032h55.109h21.926h55.111V76.96z"/>
	<path fill="#DDDFED" d="M1653.029,96.859v27.786c0,23.005-18.821,41.827-41.826,41.827h-48.487
		c-23.008,0-41.829-18.822-41.829-41.827V96.859c0-23.008,18.821-41.827,41.829-41.827h48.487
		C1634.208,55.032,1653.029,73.851,1653.029,96.859z M1611.203,144.543c10.946,0,19.9-8.954,19.9-19.898V96.859
		c0-10.946-8.954-19.898-19.9-19.898h-48.487c-10.944,0-19.896,8.952-19.896,19.898v27.786c0,10.944,8.952,19.898,19.896,19.898
		H1611.203z"/>
	<path fill="#DDDFED" d="M1806.792,124.645v-0.186h21.928v0.186c0,23.005-18.819,41.827-41.827,41.827h-48.489
		c-23.005,0-41.828-18.822-41.828-41.827V96.859c0-23.008,18.823-41.827,41.828-41.827h48.489c23.008,0,41.827,18.819,41.827,41.827
		v0.188h-21.928v-0.188c0-10.946-8.953-19.898-19.899-19.898h-48.489c-10.943,0-19.9,8.952-19.9,19.898v27.786
		c0,10.944,8.957,19.898,19.9,19.898h48.489C1797.839,144.543,1806.792,135.589,1806.792,124.645z"/>
	<path fill="#DDDFED" d="M2004.403,96.859v27.786c0,23.005-18.823,41.827-41.829,41.827h-48.487
		c-23.003,0-41.828-18.822-41.828-41.827V96.859c0-23.008,18.825-41.827,41.828-41.827h48.487
		C1985.58,55.032,2004.403,73.851,2004.403,96.859z M1962.574,144.543c10.95,0,19.898-8.954,19.898-19.898V96.859
		c0-10.946-8.948-19.898-19.898-19.898h-48.487c-10.941,0-19.9,8.952-19.9,19.898v27.786c0,10.944,8.959,19.898,19.9,19.898
		H1962.574z"/>
	<path fill="#DDDFED" d="M2174.606,166.472h-104.732h-21.926v-21.929V55.032h21.926v89.511h104.732V166.472z"/>
</g>
<path fill="#DDDFED" d="M79.293,4.178L15.74,40.869C5.78,46.62-0.357,57.249-0.357,68.75v73.385c0,11.502,6.137,22.13,16.097,27.88
	l63.553,36.692c9.96,5.752,22.232,5.752,32.194,0l63.552-36.692c9.96-5.75,16.097-16.378,16.097-27.88V68.75
	c0-11.5-6.137-22.129-16.097-27.88L111.487,4.178C101.525-1.573,89.253-1.573,79.293,4.178"/>
<path fill="#FFFFFF" d="M81.829,20.131L28.289,51.042c-8.392,4.846-13.561,13.799-13.561,23.489v61.822
	c0,9.69,5.169,18.645,13.561,23.488l53.541,30.912c8.391,4.846,18.729,4.846,27.122,0l53.54-30.912
	c8.393-4.844,13.562-13.798,13.562-23.488V74.531c0-9.689-5.169-18.643-13.562-23.489l-53.54-30.911
	C100.559,15.286,90.22,15.286,81.829,20.131"/>
<path fill="#9496CA" d="M157.121,69.803v38.354l-51.282,31.843c-6.167,3.571-13.772,3.586-19.951,0.031l-52.229-30.739V69.803
	l49.92,28.708c7.458,4.289,16.637,4.276,24.08-0.038L157.121,69.803z"/>
<path fill="#DBDBEE" d="M157.121,69.803l-49.462,28.669c-7.443,4.314-16.622,4.327-24.08,0.038l-49.92-28.708l50.586-29.206
	c6.896-3.984,15.393-3.984,22.293,0L157.121,69.803z"/>
<path fill="#2D338F" d="M157.121,108.158v32.927l-51.756,29.879c-6.173,3.565-13.777,3.565-19.95,0l-51.756-29.879v-31.794
	l52.229,30.739c6.179,3.555,13.784,3.54,19.951-0.031L157.121,108.158z"/>
</svg>
