<?xml version="1.0" encoding="UTF-8"?>
<svg id="Layer_1" xmlns="http://www.w3.org/2000/svg" version="1.1" viewBox="340 285 1220 400">
  <defs>
    <style>
      .st0 {
        fill: #1e2366;
      }

      .st1 {
        fill: #292d93;
      }

      .st2 {
        fill: #d9dcfd;
      }

      .st3 {
        fill: #fff;
      }

      .st4 {
        fill: #959afd;
      }
    </style>
  </defs>
  <g transform="translate(612, -279)">
    <path class="st0" d="M208.85,787.33h-52.87v-46.52h9.15v37.37h43.72v9.15Z"/>
    <path class="st0" d="M229.36,749.96v-9.15h38.95c1.67,0,3.28.3,4.76.84,5.33,1.96,9.15,7.09,9.15,13.07,0,7.65-6.26,13.92-13.92,13.92h-20.62s-6.7,0-6.7,0c-.02,0-.05,0-.07,0-2.56.04-4.66,2.13-4.69,4.69v4.84h43.72v9.15h-52.87v-13.92c0-7.65,6.26-13.92,13.92-13.92h27.4c2.56-.04,4.66-2.13,4.69-4.69,0-.02,0-.05,0-.07s0-.05,0-.07c-.04-2.59-2.17-4.69-4.76-4.69h-38.95Z"/>
    <path class="st0" d="M348.86,761.78h40.1c3.23,0,5.91-2.68,5.91-5.91s-2.68-5.91-5.91-5.91h-40.1v-9.15h40.1c8.28,0,15.06,6.78,15.06,15.06,0,7.04-4.9,13-11.46,14.62-1.16.29-2.36.44-3.6.44h-30.94v16.39h-9.15v-25.55Z"/>
    <path class="st0" d="M441.78,761.78h20.52c3.23,0,5.91-2.68,5.91-5.91s-2.68-5.91-5.91-5.91h-40.1v-9.15h40.1c8.28,0,15.06,6.78,15.06,15.06,0,7.04-4.9,13-11.46,14.62l13.75,16.83h-11.82l-13.39-16.39h-23.09v16.39h-9.15v-25.55h19.58Z"/>
    <path class="st0" d="M553.02,758.27v11.6c0,9.6-7.86,17.46-17.46,17.46h-20.24c-9.6,0-17.46-7.86-17.46-17.46v-11.6c0-9.6,7.86-17.46,17.46-17.46h20.24c9.6,0,17.46,7.86,17.46,17.46ZM535.56,778.18c4.57,0,8.31-3.74,8.31-8.31v-11.6c0-4.57-3.74-8.31-8.31-8.31h-20.24c-4.57,0-8.31,3.74-8.31,8.31v11.6c0,4.57,3.74,8.31,8.31,8.31h20.24Z"/>
    <path class="st0" d="M626.36,749.96h-23v37.37h-9.15v-37.37h-23v-9.15h55.16v9.15Z"/>
    <path class="st0" d="M699.7,758.27v11.6c0,9.6-7.86,17.46-17.46,17.46h-20.24c-9.6,0-17.46-7.86-17.46-17.46v-11.6c0-9.6,7.86-17.46,17.46-17.46h20.24c9.6,0,17.46,7.86,17.46,17.46ZM682.24,778.18c4.57,0,8.31-3.74,8.31-8.31v-11.6c0-4.57-3.74-8.31-8.31-8.31h-20.24c-4.57,0-8.31,3.74-8.31,8.31v11.6c0,4.57,3.74,8.31,8.31,8.31h20.24Z"/>
    <path class="st0" d="M763.89,769.87v-.08h9.15v.08c0,9.6-7.86,17.46-17.46,17.46h-20.24c-9.6,0-17.46-7.86-17.46-17.46v-11.6c0-9.6,7.86-17.46,17.46-17.46h20.24c9.6,0,17.46,7.86,17.46,17.46v.08h-9.15v-.08c0-4.57-3.74-8.31-8.31-8.31h-20.24c-4.57,0-8.31,3.74-8.31,8.31v11.6c0,4.57,3.74,8.31,8.31,8.31h20.24c4.57,0,8.31-3.74,8.31-8.31Z"/>
    <path class="st0" d="M846.38,758.27v11.6c0,9.6-7.86,17.46-17.46,17.46h-20.24c-9.6,0-17.46-7.86-17.46-17.46v-11.6c0-9.6,7.86-17.46,17.46-17.46h20.24c9.6,0,17.46,7.86,17.46,17.46ZM828.92,778.18c4.57,0,8.31-3.74,8.31-8.31v-11.6c0-4.57-3.74-8.31-8.31-8.31h-20.24c-4.57,0-8.31,3.74-8.31,8.31v11.6c0,4.57,3.74,8.31,8.31,8.31h20.24Z"/>
    <path class="st0" d="M917.43,787.33h-52.87v-46.52h9.15v37.37h43.72v9.15Z"/>
  </g>
  <g>
    <path class="st0" d="M510.06,297.2l-118.19,68.24c-18.52,10.69-29.94,30.46-29.94,51.85v136.47c0,21.39,11.41,41.15,29.94,51.85l118.19,68.24c18.52,10.69,41.35,10.69,59.87,0l118.19-68.24c18.52-10.69,29.94-30.46,29.94-51.85v-136.47c0-21.39-11.41-41.15-29.94-51.85l-118.19-68.24c-18.52-10.69-41.35-10.69-59.87,0Z"/>
    <path class="st3" d="M514.78,326.87l-99.57,57.49c-15.61,9.01-25.22,25.66-25.22,43.68v114.97c0,18.02,9.61,34.67,25.22,43.68l99.57,57.49c15.61,9.01,34.83,9.01,50.44,0l99.57-57.49c15.61-9.01,25.22-25.66,25.22-43.68v-114.97c0-18.02-9.61-34.67-25.22-43.68l-99.57-57.49c-15.61-9.01-34.83-9.01-50.44,0Z"/>
    <path class="st4" d="M654.8,419.25v71.33l-95.37,59.21c-11.47,6.64-25.61,6.67-37.1.06l-97.13-57.17v-73.44l92.84,53.39c13.87,7.97,30.94,7.95,44.78-.07l91.99-53.32Z"/>
    <path class="st2" d="M654.8,419.25l-91.99,53.32c-13.84,8.02-30.91,8.05-44.78.07l-92.84-53.39,94.07-54.31c12.83-7.41,28.63-7.41,41.46,0l94.07,54.31Z"/>
    <path class="st1" d="M654.8,490.58v61.23l-96.25,55.57c-11.48,6.63-25.62,6.63-37.1,0l-96.25-55.57v-59.13l97.13,57.17c11.49,6.61,25.63,6.58,37.1-.06l95.37-59.21Z"/>
  </g>
</svg>
